<?xml version="1.0" standalone="no"?>
<!DOCTYPE svg PUBLIC "-//W3C//DTD SVG 20010904//EN"
 "http://www.w3.org/TR/2001/REC-SVG-20010904/DTD/svg10.dtd">
<svg version="1.0" xmlns="http://www.w3.org/2000/svg"
 width="512.000000pt" height="512.000000pt" viewBox="0 0 512.000000 512.000000"
 preserveAspectRatio="xMidYMid meet">

<g transform="translate(0.000000,512.000000) scale(0.100000,-0.100000)"
fill="#ffffff" stroke="none">
<path d="M2315 4679 c-687 -83 -1286 -479 -1619 -1069 -134 -238 -229 -519
-260 -778 l-7 -52 537 2 537 3 19 70 c42 154 147 332 268 455 372 378 966 424
1396 107 184 -135 336 -357 391 -569 l17 -68 538 0 538 0 -6 48 c-64 515 -337
1021 -734 1355 -297 250 -643 411 -1025 478 -139 24 -460 34 -590 18z"/>
<path d="M2442 3190 c-232 -42 -425 -210 -499 -435 -22 -68 -27 -98 -27 -195
0 -98 5 -127 27 -196 65 -195 211 -341 412 -410 69 -24 96 -28 195 -28 99 0
126 4 195 28 188 65 333 202 400 380 127 339 -53 715 -397 830 -87 30 -221 41
-306 26z m225 -331 c68 -26 144 -98 176 -167 17 -36 22 -66 22 -132 0 -104
-22 -158 -92 -228 -199 -199 -543 -54 -543 228 0 225 224 378 437 299z"/>
<path d="M436 2288 c3 -29 17 -107 31 -173 117 -567 481 -1077 983 -1379 764
-460 1733 -395 2431 161 388 310 664 764 758 1248 10 55 22 121 25 148 l6 47
-538 0 -538 0 -17 -67 c-82 -317 -341 -598 -658 -714 -134 -49 -210 -62 -364
-63 -148 -1 -209 9 -340 51 -326 105 -604 392 -693 718 l-19 70 -537 3 -537 2
7 -52z"/>
</g>
</svg>
